<svg width="1920" height="1080" enable-background="new 0 0 1920 1080" version="1.1"
  viewBox="0 0 1920 1080" xmlns="http://www.w3.org/2000/svg">
  <style type="text/css">.st0{fill:none;}
    .st1{fill-rule:evenodd;clip-rule:evenodd;}
    .st2{fill:#010101;}</style>
  <g transform="matrix(1 0 0 .91 -42 .46)">
    <g transform="matrix(.83 0 0 .91 -1115 -1814)">
      <path
        d="m1464 3e3 -2.2-1.1-60-11 28 8.8-19-3.3-1.1 3.3h-6.6l32 7.7 2.2 4.4 43 8.8-19-1.1v2.2l-16-2.2 2.2 2.2 70 7.7 23 3.3 1.1 3.3-18 1.1-94-8.8 23 9.9 54 11h11v2.2l22 2.2 9.9 7.7h33l45-5.5 12-1.1 25-1.1h-1.1l-19 3.3-5.5 2.2-22 5.5h-20c-5.5 2.2-9.9 2.2-11 2.2-3.3 0-6.6 0-11-1.1h-16l-46-3.3-2.2 1.1 9.9 2.2 8.8 1.1 24 3.3 38 2.2h-42l-34 1.1 47 3.3h9.9l66-4.4 2.2-1.1h3.3l14-4.4 6.6 1.1-1.1-2.2 8.8-1.1 74-26 4.4-1.1 13-9.9-1.1-2.2 36-22v-2.2l-3.3 1.1 2.2-5.5 23-20 7.7-8.8-5.5-3.3 8.8-13 16-26v-34l-1.1-8.8-11-38-3.3-8.8-24-47-8.8-20-41-73-21-33-53-93-19-43-16-41 1.1-26-3.3-1.1 20-22c13 2.2 12 3.3 20 0l13-4.4h58l34 8.8 21 13h3.3l18 15 21 21 15 14 5.5 9.9 2.2-2.2 1.1 2.2 4.4 5.5v1.1l9.9 25 5.5 4.4-7.7-20-2.2-8.8 16 28h3.3l-8.8-24 4.4-2.2 8.8 7.7 2.2 5.5v-5.5c4.4 8.8 4.4 6.6 9.9 25 1.1 2.2 2.2 5.5 4.4 9.9-2.2-7.7-3.3-13-3.3-16-1.1-4.4-1.1-6.6-1.1-7.7l-6.6-27 2.2-2.2 14 30 4.4 7.7 1.1 4.4v-7.7l4.4-14-3.3-7.7 2.2-5.5 3.3 2.2h5.5l-3.3-13-16-55 3.3-2.2 11 35 6.6 25 4.4 3.3-6.6-47-6.6-18h-4.4l-4.4-6.6-14-22-25-35 25 27 5.5 2.2 1.1 3.3 2.2-2.2-13-18h3.3l-6.6-7.7-22-21-24-14-12-7.7 14 3.3 6.6 1.1 35 24-3.3-5.5-4.4-1.1-1.1-2.2-30-18-28-9.9-50-4.4-14 3.3 21-1.1c-2.2 4.4-3.3 4.4-4.4 4.4-4.4 0-11 1.1-18 3.3h-4.4l-9.9 2.2h-2.2l-14 3.3-4.4 2.2 1.1 3.3-2.2 2.2h4.4l-5.5 4.4-27 8.8c-13 5.5-23 12-30 22l2.2 1.1-1.1 4.4-15 19-31 35-3.3-41 7.7-36-4.4 7.7-6.6 5.5h-2.2l-3.3 6.6-7.7 7.7-8.8 24-14 14-2.2 37c0 1.1 1.1 4.4 2.2 9.9 0 2.2 0 5.5 1.1 8.8l-14-40-1.1 31h-2.2l3.3 25-11-8.8-1.1-7.7-4.4-3.3-3.3-5.5 6.6 43 8.8 30 14 34 25 54 25 47 30 53 23 38 29 55 12 24 21 45 4.4 9.9h-3.3l1.1 3.3 2.2 2.2 2.2 7.7-1.1-1.1 1.1 7.7 2.2-1.1 2.2 9.9 2.2 1.1 3.3 20-2.2 3.3 2.2 1.1-7.7 2.2-1.1-3.3-14-46 4.4-1.1-6.6-9.9-15-31 1.1-1.1-2.2-3.3-1.1-7.7-7.7-18-12-19-27-46-13-28-26-47-28-49-5.5-6.6 31 60 78 138 34 71 12 47-8.8 1.1-36 6.6-55 2.2 1.1 2.2-43 2.2h-9.9l-83-6.6v2.2h-12l-56-11 1.1 2.2h4.4c9.9 4.4 13 5.5 24 6.6v2.2l6.6 1.1-7.7 1.1-1.1-3.3-24-1.1h-4.4l-6.6-3.3-1.1 1.1-16-3.3v2.2l-3.3-1.1-7.7 2.2c-14-6.6-19-7.7 1.1 1.1l5.5 3.3 66 14-33 1.1-6.6-1.7zm-23-46 7.7 2.2 98 20h20l27 2.2h23l-12-2.2-2.2-1.1-50-4.4-72-12-4.4 2.2-20-6.6v1.1l-6.6-1.1h-7.6zm229-237 3.3 1.1 2.2 5.5 4.4 4.4 8.8 21 21 35 9.9 22 3.3 2.2-3.3-2.2 14 24h2.2l1.1 4.4 5.5 14 1.1-1.1 18 34 12 31 5.5 9.9 4.4-4.4 7.7 23 1.1 27c-6.6-8.8-6.6-12-7.7-23l-27-65-81-147-5.7-16zm58 6.5 69 125 16 50 5.5 33h3.3l-1.1 2.2c-1.1 11-2.2 14-8.8 22l1.1-22-12-45-25-58-21-34-15-28v-4.4l4.4-1.1-21-36 4.4-3.3zm55 32v-3.3s0-1.1 1.1-1.1h2.2l4.4 9.9 13 20 14 30 12 23 8.8 30 3.3 19c2.2 8.8 3.3 12 3.3 19v8.8l-2.2-3.3 1.1-1.1v-11l-14-49-22-44-18-32-7.9-13zm-70 24 11 16v1.1l7.7 9.9 3.3 8.8 3.3 2.2 29 55 4.4 9.9-5.5-2.2-7.7-14-14-30-31-57zm13 9.9 27 47 14 25-9.9-9.9-2.2-6.6-4.4-4.4-1.1-4.4-16-31-7.7-16zm40 41 20 38 21 60-2.2 34 1.1-6.6-5.5-40-13-38-21-48z" />
      <path
        d="m2324 2285-3.3 3.3-2.2 4.4-2.2-1.1-3.3 1.1-5.5 7.7-5.5 1.1-14 9.9-25 20-21 15-13 14-12 22 5.5 1.1v3.3l4.4 3.3 2.2 4.4-5.5 7.7-28 37-4.4 6.6-23 45-42 59-21 35 2.2 1.1-21 32 7.7-9.9 1.1 1.1 8.8-4.4 23-28v-3.3h2.2l22-28 38-47 1.1 2.2 5.5-6.6v2.2l-11 16-27 41-26 38c-1.1 9.9-2.2 12-7.7 20-4.4 7.7-8.8 15-14 23l-50 88v-11c-4.4 8.8-6.6 12-14 18l-4.4 5.5-43 57-16 33-13 24-26 47-37 82 19-32-14 41c3.3 5.5 4.4 12 4.4 15 0 1.1 0 3.3 2.2 6.6l-7.7 9.9 6.6 7.7 9.9 1.1 19-7.7 43-24 296-231 2.2 1.1 4.4 21 3.3-1.1 8.8 45 4.4-3.3v-34l4.4-1.1-1.1-8.8 2.2-1.1 4.4 14-2.2-12 2.2-4.4 3.3 14h1.1l4.4 22v3.3l2.2-1.1 4.4 14 2.2-1.1 4.4 20-1.1 4.4-5.5-1.1-3.3-12h-3.3l-3.3-5.5 5.5 24h-2.2l-1.1 13 4.4 81-5.5 16 15 16 30 16 12 9.9 5.5 2.2 5.5 8.8 12 9.9 3.3 1.1 4.4 4.4 2.2 1.1 3.3 4.4 12 4.4-1.1 2.2 8.8-5.5 5.5-11 21-52 27-61 35-72-7.7 12-5.5 9.9-20 30 9.9-24c2.2-3.3 5.5-8.8 9.9-15 2.2-4.4 4.4-7.7 5.5-9.9l32-60-5.5 8.8-6.6 6.6-41 59 11-22 2.2-12 6.6-14 3.3-7.7 30-47-34 43-22 31c-4.4 5.5-8.8 9.9-11 9.9-1.1 0-2.2 0-4.4-1.1l2.2-14 7.7-4.4 4.4-12 5.5-3.3v-3.3c0-2.2 1.1-5.5 2.2-6.6l6.6-9.9-1.1-5.5 11-13 2.2-6.6 19-30-37 44-25 40-4.4 2.2c-3.3 6.6-4.4 8.8-8.8 13l-14 2.2c-4.4-6.6-5.5-8.8-5.5-16l4.4-7.7-5.5 3.3-4.4-2.2 3.3-7.7 35-57-24 36h-6.6l-2.2 5.5-6.6 2.2h-5.5l-4.4-3.3-2.2-6.6-4.4-1.1-3.3-31-19-111-5.5-43v-22h-5.5l-2.2-25-19-155-7.7-70-9.9-4.4v-15l2.2-5.5-12-12-11-4.1zm-56 183 4.4 64 4.4 59 4.4 22 2.2 35c3.3 5.5 4.4 9.9 4.4 13l-3.3 20 2.2 38v15l-36 20-2.2-3.3 3.3-6.6v-6.6l11-11 7.7-5.5-35 21-8.8 4.4-42 28-8.8 7.7-53 38-6.6-13 14-18-104 78-3.3-1.1 3.3-6.6-3.3-1.1 5.5-11-4.4-1.1 20-33 13-18 127-217 83-112zm35 195 1.1 7.7v4.4l2.2 5.5-2.2 4.4h4.4l2.2 9.9 6.6 28-9.9 6.6-3.3-1.1-9.9 4.4-4.4-30 9.9-19-3.3-8.8 6.6-13zm37 140 2.2 3.3 2.2-2.2 3.3 15 1.1-3.3 6.6 35 3.3 6.6h3.3l2.2 6.6-2.2 4.4-5.5-3.3-11-19-5.5-44z" />
      <g transform="matrix(1.2 0 0 1.2 1395 2e3)">
        <path class="st1"
          d="m1570 251c-7.6 1.8-96 23-134 33s-77 22-112 34c-28 9.6-56 20-82 31-28 12-55 25-79 39-22 13-49 28-78 48-22 16-47 34-72 57-26 23-54 51-81 85-23 28-82 105-104 142-4.8 8.4 50 66 54 58 19-36 69-130 91-158 25-33 51-61 76-84 24-22 48-40 69-54 28-19 54-34 76-46 24-13 49-25 76-36 26-10 52-20 80-28 41-14 86-28 131-40 30-8.6 130-33 150-37 33-7 67-11 86-13 5.9-0.6 49-7.3 49-7.3l-14 1.3-36-1-8.1-3.3 1.2-3.3 17-3.4h-15l69-13 44-5.5-48-1.8-22-2.4 18-1.7-10-2.2 2-1.9 53-7.9-1-0.7-19 2.4-2.6-0.4-79 11-3.2-4-25 2.2-8.5-3.8 18-6.5-22 4-4.2-0.9c0.3 0.1-78 16-99 21z" />
      </g>
    </g>
    <g transform="matrix(1.6,0,0,1.9,-815,-1601)">
      <g transform="scale(.64 .59)">
        <path
          d="m2121 2098 2.6 4 10 11-13-15-15-23-9.1-25-6.4-12-6.4-26 0.9-7.3 2.7 2.7 3.6-10c6.4-2.7 8.2-4.5 12-7.3l6.4-4.5 8.2 3.6-1.8 16 0.9-3.6h2.7v5.5l-0.9 8.2c0 1.8 0.9 4.5 1.8 9.1l2.7-0.9v2.7l1.8 2.7 3.6-1.8 2.7 3.6 3.6-21 1.8 1.8-1.8 11h1.8v-3.6h1.8l0.9 4.5 0.9-4.5 1.8 0.9v7.3c0 2.7 0 4.5 0.9 8.2l5.5-8.2h4.6l3.6-1.8-2.7 9.1 4.5-6.4 18 8.2 1.8 3.6 4.5 2.7v5.5l1.8-3.6 5.5 8.2 5.5 4.6 1.8 12 3.6-1.8 1.8 0.9 1.8 15 3.6-33 5.5-15 4.5 11 9.1-37 8.2-50 1.8-28-0.9-0.9-4.5-0.9 1.8 2.7-2.7 3.6-1.8-0.9 1.8-10 4.5 0.9-1.8-8.2 2.7-2.7-0.9-16-5.5 8.2h-4.5l-1.8 3.6-4.6 2.7-0.9 1.8-2.7 1.8v-14l-1.8 13-2.7-1.8-2.7 3.6-3.6 2.7h-1.8l-7.3 2.7-4.5-1.8-1.8 3.6-5.5 0.9-0.9 3.6-1.8 1.8-3.6-1.8-1.8 4.5-15 13-5.5 3.6-6.4 0.9-0.9-2.7-2.7 0.9-4.6 1.8 1.8 2.7-1.8 3.6-19 7.3-5.5 8.2-29 18 6.4-12 22-20-0.9-6.4-1.8-1.8 2.7-1.8 2.7 0.9 1.8-3.6-0.9-2.7-3.6 0.9 0.9 2.7-4.5 1.8-16-6.4-36 21-16 8.2-25 22-4.5 9.1h-0.9l-3.6 6.4h-1.8l-0.9 1.8h-1.8v-3.6c-8.2 1.8-11 2.7-17 8.2l-5.5 8.2v-4.5c-8.2 10-14 21-14 33v24l1.8 9.1 2.7-0.9 1.8 2.7 15 37 5.5 10 31 36 0.9-7.3 4.5-5.5 42 45-6.4-13 2.7-4.5 5.5-1.8 27 28 24 26 14 26 2.7 1.8-0.9 3.6-33 7.3h-10l-2.7 4.5-50 6.4-129 7.3-43 9.1 35-1.8c3.6 1.8 5.5 2.7 7.3 2.7h6.4l9.1 2.7 6.4-0.9 18 0.9 2.7-0.9 11 2.7 25-1.8h11l51 0.9h15l0.9 1.8 6.4-0.9 5.5 1.8c8.2-2.7 10-2.7 19-2.7l18-2.7 10-0.9 30-6.4 29-12 7.3-7.3-0.9-0.9 8.2-5.5 1.8-0.9c1.8-4.5 2.7-7.3 3.6-9.1 3.6-7.3 5.5-14 5.5-17 0-6.4-4.5-20-10-27l-16-24-24-29-17-25 3.6 3.6 9.1 12h0.9l2.7 1.8 0.9 2.7 9.1 5.5-38-46-3.6 0.9-24-30-10-11-14-29-7.3-23-0.9-10 0.9-3.6 2.7 16 7.3 21 16 32 14 17zm14 130 0.9 4.5 5.5 2.7-1.8 4.5 5.5-0.9c5.5 5.5 6.4 9.1 6.4 14 0 1.8 0 5.5-0.9 9.1-1.8-5.5-2.7-6.4-7.3-11l-5.5-5.5v-4.6l1.8 0.9-0.9-6.4-2.7 2.7-1.8-4.6h-2.7v-4.5l3.5-0.6z" />
      </g>
      <g transform="matrix(.64 0 0 .59 547 860)">
        <path
          d="m1703 537h4.5l81-6.4-13 0.5-34-4.2-5.5-5.5-1.8-6.4 55-4.5 55-0.9h22l-65-5.5-23-5.5 9.1 0.9-2.7-0.6-1-1.2 36-2.7 28 0.9h1.8l-0.9-1.8h-8.2l-8.2-0.9h-16l-9.1-0.9-69-1.8h-8.2l-0.9-2.7-28-1.8-5.5-3.6 17-1.8-16-0.9 2.7-4.5-0.9-1.8 5.5-8.2 26-46 13-25 31-63-1.8-2.7 0.9-8.2h-14l-4.6-1.8c-2.7 3.6-16 5.5-24 11l-21 18-4.5-1.8-4.6 8.2-3.6-0.9-1.8 0.9-14-6.4h-5.5l-6.4-0.9-5.5 3.6-19 30-29 71-16 36-50-8.2-36-7.3h-1.8l-3.6 0.9-9.1 8.2-1.8 4.5-23 13c-9.1 4.5-17 14-17 14l-29 14-6.4 7.3-15 0.9-0.9 3.6h3.6l2.7 3.6-0.9 3.6 0.9 4.5-1.8 3.6 2.7 3.6 11 0.9h21l28-6.4h14l0.9-2.7h24l8.2-0.9 20-0.9-1.8 6.4 1.8-0.9v-1.4l1.8 0.9 3.6-4.6h4.6l-6.4 15 15 1.8-3.6 20h-0.9l-19 46c-0.9 1.8-1.8 4.5-2.7 7.3l-4.5 11-2.7 7.3-10 25-2.7 11-11 34-13 37-12 36-4.5 20 3.6-3.6 15-39 7.3-7.3 3.6-21 11-27 7.3-26 2.7-4.5v-5.5l4.5-3.6 2.7-9.1 8.2-23 1.8-3.6c0.9-1.8 1.8-5.5 2.7-9.1l2.7-8.2 11-28 5.5-15h1.8l13-31 6.4-9.1 31-1.8 2.7 1.8 0.9-1.8h1.8l-6.4 26-11 22-3.6 11-4.5 5.5 0.9-1.8 5.5-18c4.6-9.1 12-26 14-32l1.8-8.2c-7.3 12-8.2 15-10 25l-3.6 1.8v7.3l-6.4 7.3-23 57-23 61c-6.4 18-7.3 20-17 51l-4.5 15-1.8 0.9v7.3l-7.3 26-9.1 23-14 21-6.4 8.2v6.4l6.4 2.7 1.8 2.7-2.7 3.6-1.8 7.3 7.3 16h1.8l5.5 10 7.3 2.7-2.7 7.3 3.6 2.7 8.2-9.1 0.9 2.7 10-15 48-51 58-59 72-63-0.9-9.1 9.1-10 12-11-35 23-15 0.9 0.9-14c-4.6 4.5-6.4 5.5-12 6.4l-6.4 2.7-9.1-13 4.5-5.5-0.9-1.8-36 29-16 3.6-2.7-3.6-0.9 1.8-9.1 7.3v-3.6l-2.7 0.9-1.8-0.9 6.4-17 12-30 4.5-16 36-87 16-33 3.6-4.6h8.2l10-0.9 14-2.1zm-123 55-1.8 4.5h-0.9l-3.6 8.2-21 51-5.5 16-3.6 9.1v9.1l-12 27-9.1 30-5.5 14-0.9 13 15-44 13-30 3.6-14 9.1-16 9.1-28 0.9-6.4 3.6-5.5 2.7-14 2.7-1.8 5.5-15-1-7.1zm73-134-1.4-1.4 1.8 0.9-0.4 0.5 3.2 3.2-11 26-19 0.9-6.4-0.9 1.8-7.3 3.6-3.6 1.8-3.6 3.6-1.8 15-6.4 4.5 0.9v-2.7h1.8v-2.7l1.5-1.5z" />
      </g>
    </g>
    <g transform="matrix(1.2,0,0,1.3,1275,344)">
      <g transform="matrix(4.2,0,0,4.2,-1275,-718)">
        <path class="st2"
          d="m240 180c0-0.1 0-0.2 0.1-0.4 2.3-3 3.5-4.5 6.1-7.5l0.2-0.1c6.7 0.5 13 3 20 4.7-2.1-7-2.8-9.4-5.4-18 0-0.2-0.1-0.2-0.3 0-1.6 1.3-1.7 1.3-2.9 2.4-0.1 0.1-0.2 0.1-0.3 0-0.1-0.4-0.2-0.6-0.3-1.1 0-0.1 0-0.2 0.2-0.4 3.5-3.4 5.3-5 9-8.2 0.1-0.1 0.2-0.1 0.3 0 0.1 0.5 0.2 0.7 0.3 1.1 0 0.1 0 0.3-0.2 0.4l-2.8 2.8c-0.2 0.2-0.2 0.3-0.2 0.5 3 11 4.6 17 6.9 25 0 0.1 0 0.3-0.2 0.4-0.3 0.2-0.5 0.4-0.8 0.6-0.1 0-0.2 0.1-0.2 0-7.9-2.5-15-4.5-23-5.7 1.7 6.3 3.3 12 5 19 0 0.1 0.1 0.1 0.2 0l3-2.5c0.1-0.1 0.2-0.1 0.2 0 0.1 0.4 0.2 0.7 0.3 1.1 0 0.1 0 0.2-0.1 0.4-3.4 3.1-5 4.7-8.2 7.9-0.1 0.1-0.2 0.2-0.2 0-0.1-0.4-0.2-0.6-0.3-1.1 0-0.1 0-0.2 0.2-0.4 1.1-1.3 1.7-2 2.8-3.2 0.1-0.1 0.2-0.3 0.2-0.4-1.8-6.8-3.5-14-5.3-20 0-0.1-0.1-0.1-0.2 0.1-1.2 1.3-1.8 2-2.9 3.3-0.1 0.1-0.2 0.1-0.2 0-0.3-0.2-0.3-0.3-0.4-0.7z" />
        <path class="st2"
          d="m282 139c0.2-0.2 0.3-0.1 0.3 0 0.1 0.4 0.2 0.6 0.3 1.1 0 0.1 0 0.3-0.2 0.4-1.5 1.2-1.7 1.4-3.2 2.6-0.1 0.1-0.2 0.2-0.2 0.4 1.7 7.4 2.8 15 4.7 22 0.8 3.1 0.8 5.9 0.4 8.2-0.6 3.2-2.5 7.4-5.3 9.9-0.1 0.1-0.2 0.1-0.2 0-0.3-0.2-0.4-0.3-0.7-0.5l-0.1-0.1c-0.1-0.1-0.1-0.2 0-0.3 1.2-1.7 1.7-3.2 2-4.3 0.5-1.9 0.4-4.2 0.3-6.8-0.1-1-0.2-2.1-0.4-3.3-1.7-7.3-3.7-14-5.4-22 0-0.1-0.1-0.1-0.3 0-1.5 1-1.8 1.2-3.3 2.3-0.2 0.1-0.3 0.1-0.3 0-0.1-0.4-0.1-0.6-0.2-1 0-0.1 0-0.3 0.2-0.4 4.4-3.7 6.8-5.5 12-8.9z" />
        <path class="st2"
          d="m293 134c0-0.1-0.1-0.2-0.3-0.1-1.6 0.8-2.4 1.2-4.1 2.1-0.2 0.1-0.2 0.1-0.3-0.1-0.1-0.4-0.2-0.7-0.3-1.1 0-0.1 0-0.3 0.2-0.4 5.1-3.3 7.8-4.9 13-7.7 0.2-0.1 0.3-0.1 0.3 0.1 0.1 0.5 0.3 0.8 0.4 1.3 0 0.1 0 0.3-0.2 0.3-1.8 1.1-1.8 1-3.5 2.1-0.2 0.1-0.2 0.2-0.2 0.4 1.1 6.6 1.2 10 2.8 17 0.5 2.3 1.1 4 1.7 5.1 0.4 0.9 1.1 1.5 1.9 1.9 2.2 1.1 4.6 1.1 8-0.1 3.6-1.3 5.8-3.3 7-6.5 0.4-1.1 0.2-2.7-0.1-4.6-0.2-1-0.4-2.2-0.8-3.6-1.6-6.8-2.7-8.8-4.9-16-0.1-0.2-0.2-0.2-0.4-0.1-2 0.7-2.5 1-4.4 1.7-0.2 0.1-0.3 0-0.3-0.1-0.1-0.5-0.2-0.8-0.3-1.3 0-0.2 0-0.3 0.2-0.4 4.9-2.5 7.4-3.6 12-5.6 0.2-0.1 0.3 0 0.3 0.2 0.1 0.5 0.2 0.8 0.3 1.4 0 0.2 0 0.3-0.2 0.4-1.8 0.9-2.1 0.9-3.9 2-0.2 0.1-0.3 0.2-0.2 0.4 1.8 8 2.6 10 3.9 17 1 5.5 1 9.3-0.5 12-1.6 2.8-4.3 5.2-8.3 6.7-4.5 1.6-7.9 1.9-11 0.9-1.2-0.5-2.1-1.1-2.7-1.9-0.8-1.1-1.5-2.7-2-4.7-1.7-7.1-2.6-11-4.2-18z" />
        <path class="st2"
          d="m337 116c-0.2 0-0.2 0.1-0.2 0.3 1.1 6 1.7 8.9 2.9 15 0 0.2 0.1 0.2 0.3 0.2 1.2-0.2 1.8-0.4 3.1-0.6 6.2-1.1 9-4.2 8.1-9.8-0.5-2.7-1.8-4.5-4-5.4-1.9-0.8-4.4-0.8-7.5-0.2-1.1 0.3-1.6 0.4-2.7 0.7zm3.2-3.3c3.5-0.8 6.2-1 8.1-0.7 4.8 0.7 7.5 3.7 8.3 8.5 0.5 3.2-0.5 6-3 8.3-2.2 2.1-5.1 3.4-8.4 4-2 0.4-3.2 0.6-5 0.9 1.1 5.3 1.4 7.1 2.5 12 0 0.2 0.1 0.2 0.3 0.2 2-0.2 3-0.2 4.9-0.3 0.2 0 0.3 0.1 0.3 0.3 0.1 0.6 0.2 0.8 0.3 1.4 0 0.2 0 0.3-0.2 0.3-5.6 0.8-8.6 1.2-14 2.4-0.2 0-0.3 0-0.3-0.2-0.1-0.5-0.2-0.8-0.3-1.3 0-0.2 0-0.3 0.2-0.3 1.8-0.5 2.6-0.8 4.4-1.3 0.2 0 0.2-0.1 0.2-0.3-2.1-9.9-4.2-20-6.2-30 0-0.2-0.1-0.2-0.3-0.2-1.9 0.3-2.8 0.5-4.7 0.9-0.2 0.1-0.3 0-0.3-0.2-0.1-0.5-0.2-0.8-0.3-1.3 0-0.2 0-0.3 0.2-0.3 5.5-1.7 8.2-2.4 14-3.6z" />
        <path class="st2"
          d="m389 108c0.2 0 0.3 0.1 0.3 0.3 0.3 3.8 0.6 4.1 1 7.6 0 0.2 0 0.3-0.2 0.3-0.3 0-0.5-0.1-0.8-0.2-0.2 0-0.3-0.1-0.3-0.2-0.8-2.2-2.3-4.2-3-5-0.1-0.1-0.1-0.2-0.3-0.2-3.5-0.1-5.2-0.1-8.9 0-0.1 0-0.2 0.1-0.2 0.3 1.4 11 3.2 21 4.8 32 0 0.2 0.1 0.3 0.4 0.3 2.4 0.2 3.5 0.3 5.5 0.6 0.2 0 0.3 0.1 0.3 0.3 0.1 0.6 0.1 0.9 0.2 1.5 0 0.2 0 0.3-0.2 0.3-6-0.2-9.9-0.2-16 0.1-0.2 0-0.3-0.1-0.3-0.3-0.1-0.6-0.1-0.9-0.2-1.5 0-0.2 0-0.3 0.2-0.3 2-0.3 2.9-0.4 4.8-0.6 0.2 0 0.2-0.1 0.2-0.3-1.6-11-3.3-21-4.7-32 0-0.2-0.1-0.3-0.3-0.3-3.6 0.2-5.9 0.3-9.6 0.6-0.2 0-0.3 0.1-0.4 0.3-1.2 1.6-2.1 4.1-2.2 4.7 0 0.1-0.1 0.2-0.3 0.2h-0.9c-0.2 0-0.3-0.1-0.3-0.3v-6.6c0-0.2 0.1-0.3 0.2-0.3 10-1.1 21-1.6 31-1.4z" />
      </g>
    </g>
    <g transform="matrix(1,0,0,1.1,3,-324)">
      <path class="st1" d="m56 1268v67h-17v8.4h42v-8.4h-17v-67h17v-8.4h-42v8.4z" />
      <path class="st1"
        d="m165 1293h-8.4v-8.4h-17v8.4h-17v34h17v8.4h17v-8.4h-17v-8.4h-8.4v-17h8.4v-8.4h17v8.4h8.4v17h-8.4v8.4h8.4v34h-34v-17h-8.4v17h8.4v8.4h34v-8.4h8.4v-67h8.4v-8.4h-17v8.4z" />
      <path class="st1"
        d="m232 1285h-17v8.4h8.4v42h-8.4v8.4h25v-8.4h-8.4v-34h8.4v-8.4h17v-8.4h-17v8.4h-8.4v-8.3zm34 50v-42h-8.4v42h-8.4v8.4h25v-8.4h-8.3z" />
      <path class="st1" d="m340 1285h-25v8.4h17v42h-17v8.4h42v-8.4h-17v-50zm0-25h-8.4v8.4h8.4z" />
      <path class="st1"
        d="m449 1343v-8.4h8.4v-8.4h-8.4v8.4h-25v8.4zm-25-59v-17h-8.4v17h-17v8.4h17v42h8.4v-42h25v-8.4z" />
      <g transform="translate(268)">
        <path class="st1" d="m257 1285h-25v8.4h17v42h-17v8.4h42v-8.4h-17v-50zm0-25h-8.4v8.4h8.4z" />
      </g>
      <g transform="translate(535)">
        <path class="st1"
          d="m64 1285h-17v8.4h8.4v42h-8.4v8.4h25v-8.4h-8.4v-34h8.4v-8.4h17v-8.4h-17v8.4h-8.4v-8.3zm33 50v-42h-8.4v42h-8.4v8.4h25v-8.4h-8.3z" />
      </g>
      <g transform="translate(803)">
        <path class="st1"
          d="m-86 1293h-8.4v-8.4h-17v8.4h-17v34h17v8.4h17v-8.4h-17v-8.4h-8.4v-17h8.4v-8.4h17v8.4h8.4v17h-8.4v8.4h8.4v34h-34v-17h-8.4v17h8.4v8.4h34v-8.4h8.4v-67h8.4v-8.4h-17v8.4z" />
      </g>
      <g transform="translate(-3,293)">
        <path class="st1" d="m929 967h-75v17h8.4v-8.4h25v67h-17v8.4h42v-8.4h-17v-67h25v8.4h8.4v-17z" />
      </g>
      <g transform="translate(532,293)">
        <path class="st1" d="m762 967h-75v17h8.4v-8.4h25v67h-17v8.4h42v-8.4h-17v-67h25v8.4h8.4v-17z" />
      </g>
      <path class="st1"
        d="m1e3 1335v-42h-8.4v42h-8.4v8.4h25v-8.4h-8.3zm-34-42v-34h-17v8.4h8.4v67h-8.4v8.4h25v-8.4h-8.4v-34h8.4v-8.4h-8.4zm25-8.4h-17v8.4h17z" />
      <path class="st1"
        d="m1051 1318h50v-25h-17v8.4h8.4v8.4h-42v-8.4h8.4v-8.4h-17v42h17v8.4h25v-8.4h17v-8.4h-17v8.4h-25v-8.4h-8.4v-8.3zm33-34h-25v8.4h25z" />
      <g transform="translate(535)">
        <path class="st1"
          d="m834 1335v-42h-8.4v42h-8.4v8.4h25v-8.4h-8.3zm-33-42v-34h-17v8.4h8.4v67h-8.4v8.4h25v-8.4h-8.4v-34h8.4v-8.4h-8.4zm25-8.4h-17v8.4h17z" />
      </g>
      <path class="st1"
        d="m1453 1335h-25v8.4h25zm17 0v-42h-17v8.4h8.4v25h-8.4v8.4h17zm-50-33h8.4v-8.4h25v-8.4h-25v8.4h-17v42h17v-8.4h-8.4v-25z" />
      <path class="st1"
        d="m1553 1285h-17v8.4h8.4v34h-8.4v8.4h8.4v8.4h17v-8.4h-8.4v-50zm-34 50v-50h-17v8.4h8.4v42h8.3v8.4h17v-8.4h-17z" />
      <g transform="translate(2140)">
        <path class="st1"
          d="m-504 1293h-8.4v-8.4h-17v8.4h-17v34h17v8.4h17v-8.4h-17v-8.4h-8.4v-17h8.4v-8.4h17v8.4h8.4v17h-8.4v8.4h8.4v34h-34v-17h-8.4v17h8.4v8.4h34v-8.4h8.4v-67h8.4v-8.4h-17v8.4z" />
      </g>
      <g transform="translate(1070)">
        <path class="st1"
          d="m667 1335v-42h-8.4v42h-8.4v8.4h25v-8.4h-8.3zm-34-42v-34h-17v8.4h8.4v67h-8.4v8.4h25v-8.4h-8.4v-34h8.4v-8.4h-8.4zm25-8.4h-17v8.4h17z" />
      </g>
      <g transform="translate(2e3)">
        <path class="st1"
          d="m-178 1343v-8.4h8.4v-8.4h-8.4v8.4h-25v8.4zm-25-59v-17h-8.4v17h-17v8.4h17v42h8.4v-42h25v-8.4z" />
      </g>
    </g>
  </g>
</svg>
